<svg xmlns="http://www.w3.org/2000/svg" xmlns:xlink="http://www.w3.org/1999/xlink" viewBox="0,0,256,256" width="32px" height="32px" fill-rule="nonzero"><g fill="#ffffff" fill-rule="nonzero" stroke="none" stroke-width="1" stroke-linecap="butt" stroke-linejoin="miter" stroke-miterlimit="10" stroke-dasharray="" stroke-dashoffset="0" font-family="none" font-weight="none" font-size="none" text-anchor="none" style="mix-blend-mode: normal"><g transform="scale(8,8)"><path d="M16,4c-4.80859,0 -7.67969,0.57422 -9.49219,1.28125c-0.90234,0.35156 -1.54297,0.73828 -1.99609,1.08594c-0.45312,0.34766 -0.75391,0.67188 -0.80078,0.71484h-0.00391c-0.41016,0.35938 -0.54687,0.79688 -0.625,1.18359c-0.07812,0.39063 -0.08984,0.76953 -0.07812,1.14063c0.02344,0.74219 0.14453,1.44531 0.21484,1.81641c0.21875,1.14844 1.15234,1.92969 2.21875,1.75781c0.22656,-0.03906 0.44141,-0.09375 0.80469,-0.18359c0.36719,-0.09375 0.82422,-0.20703 1.28125,-0.32422c0.91406,-0.23047 1.88672,-0.47656 2.07422,-0.51953c0.87891,-0.19531 1.29688,-0.88281 1.52734,-1.57812v-0.00391c-0.01562,0.05469 0.16406,-0.39844 0.37891,-0.87891c0.21875,-0.48437 0.49609,-1.08984 0.76953,-1.67969c0.38281,-0.83203 0.56641,-1.22266 0.75391,-1.625c0.96875,-0.06641 1.73047,-0.1875 2.97266,-0.1875c1.24219,0 2.00391,0.12109 2.97656,0.19141c0.1875,0.40234 0.36719,0.78906 0.75,1.62109c0.27344,0.58984 0.54688,1.19531 0.76563,1.67969c0.21875,0.48438 0.40234,0.94531 0.38281,0.88672v-0.00391c0.23047,0.6875 0.64063,1.39453 1.54688,1.58203c0.14063,0.03125 1.12109,0.28125 2.03125,0.51172c0.45703,0.11719 0.91016,0.23438 1.28125,0.32422c0.375,0.08984 0.59375,0.15234 0.83984,0.19141h0.00391c1.05859,0.15625 1.98047,-0.60156 2.20313,-1.76172c0.07031,-0.37109 0.19141,-1.07422 0.21484,-1.81641c0.01172,-0.36719 0,-0.75 -0.07812,-1.14062c-0.07812,-0.38672 -0.21875,-0.82422 -0.62891,-1.18359c-0.05078,-0.04297 -0.35156,-0.36719 -0.80469,-0.71484c-0.44922,-0.34766 -1.08984,-0.73437 -1.99609,-1.08594c-1.8125,-0.70312 -4.68359,-1.28125 -9.48828,-1.28125zM10.75,6.33594c-0.13672,0.29688 -0.14453,0.3125 -0.29687,0.64063c-0.26953,0.59375 -0.55078,1.19922 -0.77344,1.69531c-0.21875,0.49609 -0.35547,0.77344 -0.45312,1.07031v0.00781h-0.00391c-0.08594,0.25781 -0.26953,0.30078 -0.06641,0.25391c-0.32422,0.07422 -1.21094,0.30078 -2.125,0.53125c-0.45312,0.11719 -0.90625,0.23047 -1.26562,0.31641c-0.28516,0.07031 -0.44922,0.10547 -0.52344,0.125c-0.02344,-0.01953 -0.04297,-0.05859 -0.05469,-0.12891c-0.0625,-0.32812 -0.16797,-0.95312 -0.1875,-1.50391c-0.00781,-0.27344 0.01172,-0.52734 0.04297,-0.67969c0.01563,-0.07812 0.03516,-0.11719 0.04297,-0.12891c0.21875,-0.20312 0.35547,-0.36328 0.64063,-0.58203c0.30859,-0.23437 0.76563,-0.51953 1.50781,-0.80859c0.78516,-0.30469 1.96094,-0.58984 3.51563,-0.80859zM21.25,6.33594c1.55078,0.21875 2.72656,0.50391 3.51563,0.8125c0.74219,0.28516 1.19922,0.57031 1.50781,0.80859c0.28516,0.21875 0.42188,0.375 0.64453,0.57813c0.00391,0.01172 0.02734,0.05469 0.03906,0.12891c0.03125,0.15625 0.05078,0.41016 0.04297,0.68359c-0.01953,0.54688 -0.125,1.17578 -0.1875,1.5c-0.01562,0.07813 -0.04297,0.10938 -0.06641,0.125c-0.08203,-0.01562 -0.24219,-0.05078 -0.53125,-0.12109c-0.36328,-0.08984 -0.8125,-0.20312 -1.26562,-0.32031c-0.90234,-0.23047 -1.74609,-0.45312 -2.10937,-0.53125c0.1875,0.04297 0.01953,0.00391 -0.0625,-0.25v-0.00391l-0.00391,-0.00391c-0.09766,-0.29687 -0.23437,-0.57422 -0.45703,-1.07031c-0.21875,-0.49609 -0.5,-1.10156 -0.77344,-1.69531c-0.15234,-0.32812 -0.15625,-0.34375 -0.29297,-0.64062zM12,11v2.54297c-0.34766,0.25391 -1.59766,1.14063 -3.20703,2.75c-1.81641,1.81641 -3.79297,4.125 -3.79297,6.70703v5h4.41406l1,-1h11.17187l1,1h4.41406v-5c0,-2.58203 -1.97656,-4.89062 -3.79297,-6.70703c-1.60937,-1.60937 -2.85937,-2.49609 -3.20703,-2.75v-2.54297h-3v1h-2v-1zM5.11719,11.00391c0.00391,0 0,0 0.00391,0c0,0 -0.00781,0.00391 -0.00781,0zM14,14h4v0.51563l0.41797,0.29688c0,0 1.69141,1.21094 3.375,2.89453c1.68359,1.68359 3.20703,3.875 3.20703,5.29297v3h-1.58594l-1,-1h-12.82812l-1,1h-1.58594v-3c0,-1.41797 1.52344,-3.60937 3.20703,-5.29297c1.68359,-1.68359 3.375,-2.89453 3.375,-2.89453l0.41797,-0.29687zM12,18v2h2v-2zM15,18v2h2v-2zM18,18v2h2v-2zM12,21v2h2v-2zM15,21v2h2v-2zM18,21v2h2v-2z"></path></g></g></svg>