<svg xmlns="http://www.w3.org/2000/svg" xmlns:xlink="http://www.w3.org/1999/xlink" viewBox="0,0,256,256" width="50px" height="50px" fill-rule="nonzero"><g fill-opacity="0.65098" fill="#614999" fill-rule="nonzero" stroke="none" stroke-width="1" stroke-linecap="butt" stroke-linejoin="miter" stroke-miterlimit="10" stroke-dasharray="" stroke-dashoffset="0" font-family="none" font-weight="none" font-size="none" text-anchor="none" style="mix-blend-mode: normal"><g transform="scale(5.12,5.12)"><path d="M13.48047,3c-5.228,0 -9.48047,4.038 -9.48047,9c0,4.962 4.25247,9 9.48047,9c2.189,0 4.24809,-0.71686 6.12109,-2.13086c0.409,-0.308 0.51991,-0.87645 0.25391,-1.31445c-0.263,-0.439 -0.8162,-0.60572 -1.2832,-0.38672c-0.408,0.193 -0.95219,0.28906 -1.61719,0.28906c-3.284,0 -5.95508,-2.44703 -5.95508,-5.45703c0,-2.958 2.72708,-5.45798 5.95508,-5.45898c0.585,0 1.21014,0.17184 1.74414,0.33984c0.465,0.148 0.96745,-0.06309 1.18945,-0.49609c0.224,-0.433 0.10189,-0.96286 -0.28711,-1.25586c-1.873,-1.413 -3.93309,-2.12891 -6.12109,-2.12891zM27.5,6c-0.828,0 -1.5,0.672 -1.5,1.5c0,0.828 0.672,1.5 1.5,1.5c0.828,0 1.5,-0.672 1.5,-1.5c0,-0.828 -0.672,-1.5 -1.5,-1.5zM37,6.98633c-0.4018,0.00206 -0.76335,0.24437 -0.91797,0.61523l-0.63867,1.4707c-0.81138,1.86793 -0.51285,4.07087 0.80273,5.58398c0.76157,0.87518 0.97868,2.32158 0.47656,3.47461l-0.64062,1.4707c-0.22005,0.50698 0.01255,1.09636 0.51953,1.31641c0.50698,0.22005 1.09636,-0.01255 1.31641,-0.51953l0.63867,-1.46875v-0.00195c0.81289,-1.86853 0.51327,-4.07166 -0.80273,-5.58398c-0.76198,-0.87639 -0.97819,-2.32094 -0.47656,-3.47461l0.64063,-1.4707c0.14043,-0.31059 0.113,-0.67133 -0.07278,-0.95712c-0.18578,-0.28579 -0.50433,-0.45727 -0.84519,-0.45499zM43.98633,6.98633c-0.43772,0.00828 -0.81918,0.30031 -0.94141,0.7207l-0.64062,2.08203c-0.74478,2.42593 -0.49404,5.21801 0.74414,7.23438c0.83996,1.36787 1.10509,3.74603 0.53516,5.59961l-0.63867,2.08398c-0.12445,0.34684 -0.04809,0.73401 0.19872,1.00763c0.24681,0.27362 0.62409,0.38935 0.98188,0.30119c0.35779,-0.08816 0.63811,-0.36592 0.72955,-0.72288l0.64063,-2.08203c0.74607,-2.42642 0.49389,-5.21825 -0.74414,-7.23438c-0.83982,-1.36763 -1.10437,-3.74554 -0.53516,-5.59961l0.63867,-2.08398c0.09895,-0.30712 0.04364,-0.64311 -0.14853,-0.90231c-0.19217,-0.2592 -0.49759,-0.40976 -0.82022,-0.40433zM20,11c-0.552,0 -1,0.448 -1,1c0,0.552 0.448,1 1,1c0.552,0 1,-0.448 1,-1c0,-0.552 -0.448,-1 -1,-1zM25,18c-1.10457,0 -2,0.89543 -2,2c0,1.10457 0.89543,2 2,2c1.10457,0 2,-0.89543 2,-2c0,-1.10457 -0.89543,-2 -2,-2zM25,22c-11.627,0 -21.08789,9.45989 -21.08789,21.08789v0.91211h-1.91211c-0.553,0 -1,0.448 -1,1c0,0.552 0.447,1 1,1h46c0.553,0 1,-0.448 1,-1c0,-0.552 -0.447,-1 -1,-1h-1.91211v-0.91211c0,-11.628 -9.46089,-21.08789 -21.08789,-21.08789zM18.25195,28.32227c0.39019,-0.02077 0.76967,0.18855 0.95117,0.56055c0.241,0.497 0.03506,1.09689 -0.46094,1.33789c-2.866,1.396 -5.21242,3.74242 -6.60742,6.60742c-0.174,0.355 -0.52939,0.5625 -0.90039,0.5625c-0.146,0 -0.2955,-0.03256 -0.4375,-0.10156c-0.496,-0.242 -0.70194,-0.83894 -0.46094,-1.33594c1.592,-3.265 4.2643,-5.93925 7.5293,-7.53125c0.1255,-0.06075 0.25666,-0.09269 0.38672,-0.09961z"></path></g></g></svg>