<svg xmlns="http://www.w3.org/2000/svg" xmlns:xlink="http://www.w3.org/1999/xlink" viewBox="0,0,256,256" width="48px" height="48px" fill-rule="nonzero"><g fill="#b55199" fill-rule="nonzero" stroke="none" stroke-width="1" stroke-linecap="butt" stroke-linejoin="miter" stroke-miterlimit="10" stroke-dasharray="" stroke-dashoffset="0" font-family="none" font-weight="none" font-size="none" text-anchor="none" style="mix-blend-mode: normal"><g transform="scale(10.66667,10.66667)"><path d="M12,0c-0.141,0 -0.28206,0.03034 -0.41406,0.08984l-11,5c-0.503,0.229 -0.72509,0.82122 -0.49609,1.32422c0.228,0.502 0.81722,0.72809 1.32422,0.49609l10.58594,-4.8125l10.58594,4.8125c0.135,0.062 0.27411,0.08984 0.41211,0.08984c0.381,0 0.74511,-0.21694 0.91211,-0.58594c0.229,-0.503 0.00691,-1.09522 -0.49609,-1.32422l-11,-5c-0.132,-0.0595 -0.27306,-0.08984 -0.41406,-0.08984zM5.98438,6.98633c-0.55152,0.00862 -0.99193,0.46214 -0.98437,1.01367v4.44336c0,0.7769 0.4141,1.45765 0.9707,1.89063c0.5566,0.43298 1.26684,0.66602 2.0293,0.66602v8c-0.0051,0.36064 0.18438,0.69608 0.49587,0.87789c0.3115,0.18181 0.69676,0.18181 1.00825,0c0.3115,-0.18181 0.50097,-0.51725 0.49587,-0.87789v-8c0.76245,0 1.4727,-0.23304 2.0293,-0.66602c0.5566,-0.43297 0.9707,-1.11372 0.9707,-1.89062v-4.44336c0.0051,-0.36064 -0.18438,-0.69608 -0.49587,-0.87789c-0.3115,-0.18181 -0.69676,-0.18181 -1.00825,0c-0.3115,0.18181 -0.50097,0.51725 -0.49587,0.87789v4.44336c0,0.0831 -0.03207,0.18248 -0.19922,0.3125c-0.16715,0.13003 -0.45824,0.24414 -0.80078,0.24414v-5c0.0051,-0.36064 -0.18438,-0.69608 -0.49587,-0.87789c-0.3115,-0.18181 -0.69676,-0.18181 -1.00825,0c-0.3115,0.18181 -0.50097,0.51725 -0.49587,0.87789v5c-0.34255,0 -0.63363,-0.11411 -0.80078,-0.24414c-0.16715,-0.13002 -0.19922,-0.2294 -0.19922,-0.3125v-4.44336c0.0037,-0.2703 -0.10218,-0.53059 -0.29351,-0.72155c-0.19133,-0.19097 -0.45182,-0.29634 -0.72212,-0.29212zM15.98438,6.98633c-0.55152,0.00862 -0.99193,0.46214 -0.98437,1.01367v15c-0.0051,0.36064 0.18438,0.69608 0.49587,0.87789c0.3115,0.18181 0.69676,0.18181 1.00825,0c0.3115,-0.18181 0.50097,-0.51725 0.49587,-0.87789v-5l0.89453,-0.44727c0.678,-0.339 1.10547,-1.03206 1.10547,-1.78906v-4.76367c0,-1.54672 -1.26647,-3.2458 -2.36133,-3.7832c-0.18362,-0.15243 -0.41569,-0.23417 -0.6543,-0.23047z"></path></g></g></svg>